<svg xmlns="http://www.w3.org/2000/svg" xmlns:xlink="http://www.w3.org/1999/xlink" width="61.354" height="50" viewBox="0 0 61.354 50">
  <defs>
    <clipPath id="clip-path">
      <path id="Path_7930" data-name="Path 7930" d="M1139.462,356.852a2.019,2.019,0,0,1-2.016,2.009l-57.321-.131a2.008,2.008,0,0,1-2.017-2.008V310.874a2.013,2.013,0,1,1,4.025,0V354.7l55.313.126A2.031,2.031,0,0,1,1139.462,356.852Zm-4.011-45.751-7.953,1.834a.96.96,0,0,0-.721,1.138l3.407,2.135-12.626,19.743-9.026-5.55a2.387,2.387,0,0,0-1.488-.338,2.421,2.421,0,0,0-1.615.579l-20.417,17.8a2.43,2.43,0,0,0-.252,3.414,2.4,2.4,0,0,0,3.4.257l19.218-16.748,9.472,5.821c.037.034.1.072.141.105a2.512,2.512,0,0,0,1.213.383c.016,0,.016,0,.024.006h.171c.059-.006.1-.006.148-.014a.119.119,0,0,0,.045,0,2.4,2.4,0,0,0,1.815-1.141c.046-.075.082-.16.12-.235l13.75-21.513,3.438,2.147a.949.949,0,0,0,.714-1.14l-1.831-7.964A.957.957,0,0,0,1135.452,311.1Z" transform="translate(-1078.108 -308.861)" fill="#7eaf00"/>
    </clipPath>
  </defs>
  <g id="Group_4753" data-name="Group 4753" transform="translate(-1078.108 -308.861)">
    <path id="Path_7921" data-name="Path 7921" d="M1139.462,356.852a2.019,2.019,0,0,1-2.016,2.009l-57.321-.131a2.008,2.008,0,0,1-2.017-2.008V310.874a2.013,2.013,0,1,1,4.025,0V354.7l55.313.126A2.031,2.031,0,0,1,1139.462,356.852Zm-4.011-45.751-7.953,1.834a.96.96,0,0,0-.721,1.138l3.407,2.135-12.626,19.743-9.026-5.55a2.387,2.387,0,0,0-1.488-.338,2.421,2.421,0,0,0-1.615.579l-20.417,17.8a2.43,2.43,0,0,0-.252,3.414,2.4,2.4,0,0,0,3.4.257l19.218-16.748,9.472,5.821c.037.034.1.072.141.105a2.512,2.512,0,0,0,1.213.383c.016,0,.016,0,.024.006h.171c.059-.006.1-.006.148-.014a.119.119,0,0,0,.045,0,2.4,2.4,0,0,0,1.815-1.141c.046-.075.082-.16.12-.235l13.75-21.513,3.438,2.147a.949.949,0,0,0,.714-1.14l-1.831-7.964A.957.957,0,0,0,1135.452,311.1Z" transform="translate(0 0)" fill="#32ad71"/>
    <g id="Group_4752" data-name="Group 4752" transform="translate(1078.108 308.861)" clip-path="url(#clip-path)">
      <g id="Group_4746" data-name="Group 4746" transform="translate(-1.8 -7.573)">
        <g id="Group_4742" data-name="Group 4742" transform="translate(1.119 29.741)">
          <path id="Path_7922" data-name="Path 7922" d="M1103.563,360.954c-.134,0-.267,0-.4,0l-.958-.019c-7.409.062-16.1-2.965-26.835-7.53l-3.955-1.679.643-.9c5.856-8.2,12.719-17.33,20.083-21.821a19.432,19.432,0,0,1,9.987-3.115c.15,0,.3,0,.45,0l.14,0,.105,0c.15,0,.3-.006.452,0a19.422,19.422,0,0,1,9.985,3.115c7.361,4.488,14.227,13.618,20.086,21.821l.643.9-3.957,1.679C1119.379,357.932,1110.777,360.954,1103.563,360.954Zm-.369-1.78c6.962.094,15.5-2.883,26.147-7.409l1.915-.812c-5.612-7.819-12.108-16.283-18.92-20.438a17.728,17.728,0,0,0-9.085-2.855c-.129,0-.257,0-.385,0l-.145,0-.185,0c-.129,0-.255-.006-.381,0a17.728,17.728,0,0,0-9.086,2.855c-6.815,4.158-13.308,12.62-18.918,20.438l1.915.812c9.115,3.875,18.556,7.457,26.153,7.388Z" transform="translate(-1071.416 -325.883)" fill="#54bd8c"/>
        </g>
        <g id="Group_4743" data-name="Group 4743" transform="translate(1.119)">
          <path id="Path_7923" data-name="Path 7923" d="M1103.178,342.321c-.116,0-.23,0-.345-.006l-.145,0-.118,0c-.148,0-.294.006-.441,0a19.435,19.435,0,0,1-9.987-3.115c-7.364-4.491-14.227-13.619-20.083-21.821l-.643-.9,3.955-1.679c10.737-4.565,19.418-7.594,26.862-7.53l.93-.019c7.3-.12,16.018,2.935,26.873,7.549l3.955,1.679-.643.9c-5.859,8.2-12.725,17.333-20.086,21.821a19.425,19.425,0,0,1-9.983,3.115ZM1074.15,317.25c5.61,7.818,12.1,16.28,18.918,20.436a17.722,17.722,0,0,0,9.088,2.857c.123,0,.248,0,.372,0l.158,0,.19,0c.125,0,.249.006.375,0a17.715,17.715,0,0,0,9.085-2.857c6.812-4.153,13.308-12.617,18.92-20.436l-1.915-.812c-10.646-4.526-19.167-7.519-26.147-7.409l-.95.021c-.067,0-.134,0-.2,0-7.552,0-16.942,3.548-25.978,7.388Z" transform="translate(-1071.416 -307.249)" fill="#54bd8c"/>
        </g>
        <g id="Group_4744" data-name="Group 4744" transform="translate(29.741 1.117)">
          <path id="Path_7924" data-name="Path 7924" d="M1115.189,370.524l-.9-.643c-8.2-5.856-17.332-12.719-21.823-20.083a19.442,19.442,0,0,1-3.116-9.987c0-.145,0-.29,0-.436l0-.153,0-.121c0-.145-.006-.291,0-.437a19.445,19.445,0,0,1,3.116-9.985c4.488-7.359,13.617-14.226,21.823-20.085l.9-.645,1.677,3.957c4.614,10.853,7.664,19.576,7.551,26.871l-.021.958c.062,7.422-2.966,16.1-7.53,26.835Zm-.771-59.84c-7.819,5.612-16.283,12.108-20.436,18.92a17.716,17.716,0,0,0-2.857,9.085c0,.123,0,.246,0,.369l0,.163,0,.2c0,.123-.006.244,0,.366a17.717,17.717,0,0,0,2.857,9.086c4.156,6.815,12.619,13.31,20.436,18.918l.814-1.915c3.874-9.114,7.452-18.589,7.386-26.152l.021-.975c.11-6.983-2.883-15.5-7.407-26.148Z" transform="translate(-1089.349 -307.949)" fill="#7dcca8"/>
        </g>
        <g id="Group_4745" data-name="Group 4745" transform="translate(0 1.117)">
          <path id="Path_7925" data-name="Path 7925" d="M1079.947,370.524l-1.679-3.955c-4.565-10.737-7.593-19.415-7.53-26.862l-.019-.93c-.115-7.3,2.935-16.018,7.549-26.871l1.679-3.957.9.645c8.205,5.859,17.335,12.725,21.822,20.085a19.431,19.431,0,0,1,3.115,9.985c0,.15,0,.3,0,.445l0,.144,0,.117c0,.148.008.3,0,.442a19.428,19.428,0,0,1-3.115,9.987c-4.491,7.364-13.619,14.227-21.822,20.083Zm-7.452-31.778.021.95c-.064,7.588,3.513,17.064,7.388,26.179l.812,1.915c7.819-5.609,16.282-12.1,20.438-18.918a17.71,17.71,0,0,0,2.855-9.086c0-.125,0-.249,0-.375l0-.156,0-.187c0-.126.007-.252,0-.378a17.709,17.709,0,0,0-2.855-9.085c-4.155-6.812-12.617-13.308-20.438-18.92l-.812,1.915C1075.377,323.246,1072.386,331.766,1072.495,338.747Z" transform="translate(-1070.715 -307.949)" fill="#a8dec4"/>
        </g>
      </g>
    </g>
  </g>
</svg>
