<?xml version="1.0" encoding="UTF-8"?>
<svg width="64px" height="64px" viewBox="0 0 64 64" version="1.1" xmlns="http://www.w3.org/2000/svg" xmlns:xlink="http://www.w3.org/1999/xlink">
    <title>38365EC9-0049-499B-B7B9-40FD6E1739E6</title>
    <g id="Product-icons" stroke="none" stroke-width="1" fill="none" fill-rule="evenodd">
        <g id="services-icons" transform="translate(-914.000000, -1762.000000)" fill-rule="nonzero">
            <g id="Entity-file-" transform="translate(914.000000, 1762.000000)">
                <path d="M43,6 C45.209139,6 47,7.790861 47,10 C47,10.4090587 46.9385974,10.8037761 46.8245062,11.1754379 L50.9424181,13.4208739 C51.6761633,12.5518977 52.7736303,12 54,12 C56.209139,12 58,13.790861 58,16 C58,18.209139 56.209139,20 54,20 C51.790861,20 50,18.209139 50,16 C50,15.5913111 50.0612917,15.1969377 50.1751844,14.8255703 L46.0575819,12.5791261 C45.3238367,13.4481023 44.2263697,14 43,14 C42.2468844,14 41.5423807,13.7918679 40.9408708,13.4299856 L35.2383369,19.6514992 C35.7174378,20.3109879 36,21.122496 36,22 C36,24.209139 34.209139,26 32,26 C31.2468844,26 30.5423807,25.7918679 29.9408708,25.4299856 L24.2383369,31.6514992 C24.7174378,32.3109879 25,33.122496 25,34 C25,36.209139 23.209139,38 21,38 C18.790861,38 17,36.209139 17,34 C17,33.1849399 17.2437783,32.4268172 17.6624002,31.7945668 L12.2054332,26.3375998 C11.5731828,26.7562217 10.8150601,27 10,27 C7.790861,27 6,25.209139 6,23 C6,20.790861 7.790861,19 10,19 C12.209139,19 14,20.790861 14,23 C14,23.8150601 13.7562217,24.5731828 13.3375998,25.2054332 L18.7945668,30.6624002 C19.4268172,30.2437783 20.1849399,30 21,30 C21.7531156,30 22.4576193,30.2081321 23.0591292,30.5700144 L28.7616631,24.3485008 C28.2825622,23.6890121 28,22.877504 28,22 C28,19.790861 29.790861,18 32,18 C32.7531156,18 33.4576193,18.2081321 34.0591292,18.5700144 L39.7616631,12.3485008 C39.2825622,11.6890121 39,10.877504 39,10 C39,7.790861 40.790861,6 43,6 Z M21,31.6 C19.6745166,31.6 18.6,32.6745166 18.6,34 C18.6,35.3254834 19.6745166,36.4 21,36.4 C22.3254834,36.4 23.4,35.3254834 23.4,34 C23.4,32.6745166 22.3254834,31.6 21,31.6 Z M10,20.6 C8.6745166,20.6 7.6,21.6745166 7.6,23 C7.6,24.3254834 8.6745166,25.4 10,25.4 C11.3254834,25.4 12.4,24.3254834 12.4,23 C12.4,21.6745166 11.3254834,20.6 10,20.6 Z M32,19.6 C30.6745166,19.6 29.6,20.6745166 29.6,22 C29.6,23.3254834 30.6745166,24.4 32,24.4 C33.3254834,24.4 34.4,23.3254834 34.4,22 C34.4,20.6745166 33.3254834,19.6 32,19.6 Z M54,13.6 C52.6745166,13.6 51.6,14.6745166 51.6,16 C51.6,17.3254834 52.6745166,18.4 54,18.4 C55.3254834,18.4 56.4,17.3254834 56.4,16 C56.4,14.6745166 55.3254834,13.6 54,13.6 Z M43,7.6 C41.6745166,7.6 40.6,8.6745166 40.6,10 C40.6,11.3254834 41.6745166,12.4 43,12.4 C44.3254834,12.4 45.4,11.3254834 45.4,10 C45.4,8.6745166 44.3254834,7.6 43,7.6 Z" id="Combined-Shape" fill="#F9B122"></path>
                <path d="M46,18.2 C46.4418278,18.2 46.8,18.5581722 46.8,19 L46.799,52.2 L50.199,52.2 L50.2,25 C50.2,24.592159 50.5051881,24.2555984 50.8996497,24.2062331 L51,24.2 L57,24.2 C57.4418278,24.2 57.8,24.5581722 57.8,25 L57.799,52.2 L61,52.2 C61.407841,52.2 61.7444016,52.5051881 61.7937669,52.8996497 L61.8,53 L61.8,57 C61.8,57.4418278 61.4418278,57.8 61,57.8 L4,57.8 C3.5581722,57.8 3.2,57.4418278 3.2,57 L3.2,53 C3.2,52.5581722 3.5581722,52.2 4,52.2 L6.199,52.2 L6.2,41.0621006 C6.2,40.6202728 6.5581722,40.2621006 7,40.2621006 C7.40784105,40.2621006 7.74440158,40.5672887 7.79376686,40.9617503 L7.8,41.0621006 L7.8,52.2 L12.2,52.2 L12.2,32.8 L7.8,32.8 L7.8,36.1367724 C7.8,36.5446134 7.49481185,36.881174 7.1003503,36.9305392 L7,36.9367724 C6.59215895,36.9367724 6.25559842,36.6315842 6.20623314,36.2371227 L6.2,36.1367724 L6.2,32 C6.2,31.592159 6.50518815,31.2555984 6.8996497,31.2062331 L7,31.2 L13,31.2 C13.407841,31.2 13.7444016,31.5051881 13.7937669,31.8996497 L13.8,32 L13.799,52.2 L17.199,52.2 L17.2,43 C17.2,42.592159 17.5051881,42.2555984 17.8996497,42.2062331 L18,42.2 L24,42.2 C24.4418278,42.2 24.8,42.5581722 24.8,43 L24.799,52.2 L28.199,52.2 L28.2,31 C28.2,30.592159 28.5051881,30.2555984 28.8996497,30.2062331 L29,30.2 L35,30.2 C35.4418278,30.2 35.8,30.5581722 35.8,31 L35.799,52.2 L39.199,52.2 L39.2,19 C39.2,18.592159 39.5051881,18.2555984 39.8996497,18.2062331 L40,18.2 Z M60.2,53.8 L4.8,53.8 L4.8,56.2 L60.2,56.2 L60.2,53.8 Z M56.2,25.8 L51.8,25.8 L51.8,52.2 L56.2,52.2 L56.2,25.8 Z M45.2,19.8 L40.8,19.8 L40.8,52.2 L45.2,52.2 L45.2,19.8 Z M34.2,31.8 L29.8,31.8 L29.8,52.2 L34.2,52.2 L34.2,31.8 Z M23.2,43.8 L18.8,43.8 L18.8,52.2 L23.2,52.2 L23.2,43.8 Z" id="Combined-Shape" fill="#32AD71"></path>
            </g>
        </g>
    </g>
</svg>