<?xml version="1.0" encoding="UTF-8"?>
<svg width="64px" height="64px" viewBox="0 0 64 64" version="1.1" xmlns="http://www.w3.org/2000/svg" xmlns:xlink="http://www.w3.org/1999/xlink">
    <title>8A499E81-3C52-4AF4-97B3-6CB477E497E1</title>
    <g id="Product-icons" stroke="none" stroke-width="1" fill="none" fill-rule="evenodd">
        <g id="services-icons" transform="translate(-1109.000000, -2556.000000)" fill-rule="nonzero">
            <g id="User-management-icon" transform="translate(1109.000000, 2556.000000)">
                <g id="management" transform="translate(7.000000, 8.000000)">
                    <path d="M22.64,-0.2 L22.4755901,-0.194884087 C21.1163966,-0.110042118 20.04,1.01945247 20.04,2.4 L20.039,5.349 L19.7048284,5.45465662 C18.9123566,5.71715068 18.1416078,6.03873563 17.3994329,6.41671421 L17.09,6.579 L14.9957863,4.48513108 C13.9681407,3.50149531 12.3527968,3.50149531 11.3282736,4.48207656 L7.92514112,7.88514112 C7.43776539,8.37116277 7.16375,9.03147 7.16375,9.72 L7.17190882,9.92555118 C7.2206806,10.5387953 7.48647993,11.1174242 7.92528867,11.5553187 L10.02,13.65 L9.8572124,13.959948 C9.47852256,14.7028826 9.15652715,15.4735617 8.89400923,16.2653069 L8.788,16.599 L5.84,16.6 C4.40423057,16.6 3.24,17.7642306 3.24,19.2 L3.24,24 C3.24,25.4357694 4.40423057,26.6 5.84,26.6 L6.04,26.6 L6.04,24.6 L5.84,24.6 C5.50858191,24.6 5.24,24.3314181 5.24,24 L5.24,19.2 C5.24,18.8685819 5.50858191,18.6 5.84,18.6 L10.3185548,18.6 L10.5144524,17.8495796 C10.8632706,16.4931728 11.4055013,15.1944133 12.1244314,13.9930108 L12.5244708,13.3238044 L9.34141416,10.1410715 C9.22938264,10.0292742 9.16656248,9.87797408 9.16656248,9.72 C9.16656248,9.56221311 9.22947145,9.41063717 9.34127317,9.29906939 L12.7398394,5.90144086 C12.973625,5.67701648 13.3473125,5.67701648 13.5839787,5.90426312 L16.7633547,9.07819403 L17.4323803,8.67787222 C18.6345307,7.95948019 19.9333503,7.4175999 21.2888742,7.06901015 L22.04,6.87488163 L22.04,2.4 C22.04,2.06858191 22.3085819,1.8 22.64,1.8 L27.44,1.8 C27.7714181,1.8 28.04,2.06858191 28.04,2.4 L28.04,6.87837766 L28.7902718,7.07355763 C30.1494574,7.42323075 31.449368,7.96544903 32.6517282,8.68446222 L33.3205344,9.08449582 L36.5036089,5.90142136 C36.7366721,5.67934776 37.1080154,5.67934776 37.3445078,5.90476928 L40.7384747,9.30381733 C40.9692714,9.53508131 40.9692714,9.90991869 40.7384357,10.1412217 L37.5612297,13.3239307 L37.9611461,13.9929315 C38.67993,15.1935748 39.2221141,16.4922226 39.571313,17.8489155 L39.7650404,18.6 L44.24,18.6 C44.5712256,18.6 44.84,18.8687019 44.84,19.2 L44.84,24 C44.84,24.3312981 44.5712256,24.6 44.24,24.6 L44.04,24.6 L44.04,26.6 L44.24,26.6 C45.6757694,26.6 46.84,25.4357694 46.84,24 L46.84,19.2 L46.8348841,19.0355901 C46.7500421,17.6763966 45.6205475,16.6 44.24,16.6 L41.291,16.599 L41.1858062,16.2650251 C40.9230744,15.4729309 40.6012039,14.7020871 40.2228917,13.9591095 L40.059,13.65 L42.1551714,11.5542338 C42.6422394,11.0681814 42.9159375,10.4079014 42.9159375,9.71906248 C42.9159375,9.03041336 42.6423756,8.37073069 42.155073,7.8841053 L38.7557899,4.48513462 L38.6184734,4.36241283 C37.5884918,3.50335649 36.0682566,3.54413555 35.0879849,4.48205378 L32.989,6.58 L32.6795319,6.41711416 C31.9359849,6.03836322 31.1654118,5.71652474 30.374243,5.45437398 L30.039,5.349 L30.04,2.4 C30.04,0.96423057 28.8757694,-0.2 27.44,-0.2 L22.64,-0.2 Z" id="Path" fill="#F9B122"></path>
                    <path d="M25.04,10.2 C18.8422944,10.2 13.7997885,15.1456667 13.6437233,21.3057592 L13.64,21.8 L15.64,21.8 L15.64,21.6 C15.64,16.4085819 19.8485819,12.2 25.04,12.2 C30.2314181,12.2 34.44,16.4085819 34.44,21.6 L34.44,21.8 L36.44,21.8 L36.44,21.6 C36.44,15.3040251 31.3358765,10.2 25.04,10.2 Z" id="Path" fill="#F9B122"></path>
                    <path d="M25.04,18.2 C27.801601,18.2 30.04,20.4384996 30.04,23.2002123 C30.0370704,25.9605034 27.8005034,28.1970704 25.04,28.2 C22.2787115,28.2 20.04,25.9611878 20.04,23.2 C20.04,20.4386055 22.2786055,18.2 25.04,18.2 Z M25.04,20.2 C23.3832694,20.2 22.04,21.5432694 22.04,23.2 C22.04,24.8567306 23.3832694,26.2 25.04,26.2 C26.6967306,26.2 28.04,24.8567306 28.04,23.2 C28.04,21.5432694 26.6967306,20.2 25.04,20.2 Z" id="Shape" fill="#32AD71"></path>
                    <path d="M38.64,21.4 C41.4013945,21.4 43.64,23.6386055 43.64,26.4002123 C43.6370704,29.1605034 41.4005034,31.3970704 38.64,31.4 C35.8787115,31.4 33.64,29.1611878 33.64,26.4 C33.64,23.6386055 35.8786055,21.4 38.64,21.4 Z M38.64,23.4 C36.9832694,23.4 35.64,24.7432694 35.64,26.4 C35.64,28.0567306 36.9832694,29.4 38.64,29.4 C40.2967306,29.4 41.64,28.0567306 41.64,26.4 C41.64,24.7432694 40.2967306,23.4 38.64,23.4 Z" id="Shape" fill="#32AD71"></path>
                    <path d="M11.44,21.4 C14.201601,21.4 16.44,23.6384996 16.44,26.4002123 C16.4370704,29.1605034 14.2005034,31.3970704 11.44,31.4 C8.67871146,31.4 6.44,29.1611878 6.44,26.4 C6.44,23.6386055 8.67860553,21.4 11.44,21.4 Z M11.44,23.4 C9.78326943,23.4 8.44,24.7432694 8.44,26.4 C8.44,28.0567306 9.78326943,29.4 11.44,29.4 C13.0967306,29.4 14.44,28.0567306 14.44,26.4 C14.44,24.7432694 13.0967306,23.4 11.44,23.4 Z" id="Shape" fill="#32AD71"></path>
                    <path d="M21.84,28.5999331 L21.5719263,28.6039213 C19.2487876,28.6807916 17.098783,29.8580367 15.7824027,31.7738499 L15.706,31.888 L15.8372512,31.9082455 C15.4418107,31.8397668 15.0419216,31.8035377 14.6417642,31.8000078 L8.24,31.8 C6.7544546,31.7958245 5.30161291,32.2445659 4.07645333,33.08608 C2.05316046,34.4627643 0.841284787,36.751785 0.84,39.199895 L0.84,42.4 C0.842913322,44.6628252 2.15944845,46.7172087 4.21405527,47.6647419 C4.97196819,48.0217184 5.80177221,48.2048541 6.64113245,48.2002084 L14.84,48.2002084 L14.84,46.2 L7.64,46.2 L7.64,37.4 L5.64,37.4 L5.64,46.066 L5.4591666,46.0121324 C5.32143962,45.9663743 5.18627224,45.912101 5.05442853,45.8495939 C3.70617326,45.2279272 2.84296885,43.882165 2.84,42.3995994 L2.84,39.2 C2.84180785,37.4127782 3.72733111,35.7417101 5.205304,34.7363027 C6.09821182,34.1233537 7.15629626,33.7969863 8.23944368,33.7999992 L14.7270046,33.8017967 L14.784,33.805 L14.8658769,33.5575284 C14.587575,34.3423012 14.4435328,35.1677643 14.4400018,35.9991506 L14.44,44 C14.4429529,46.3185134 16.3215485,48.1970415 18.6397358,48.2002084 L21.24,48.2002084 L21.24,35 L19.24,35 L19.24,46.2 L18.64,46.2 C17.4251445,46.2 16.44,45.2148555 16.44,44 L16.44,36 C16.44,33.0175513 18.8577376,30.6 21.84,30.6 L28.24,30.6 C29.1328895,30.6005421 30.0100657,30.8230542 30.7938149,31.2454998 L31.0514977,31.3936897 C31.1331642,31.4385718 31.2034814,31.4835692 31.2701353,31.5330673 C31.9997143,32.0329107 32.5932673,32.6946811 33.0068146,33.4669175 C33.4224142,34.2468833 33.64,35.1168415 33.64,36 L33.64,44 L33.6344753,44.1570946 C33.553901,45.298658 32.6020357,46.2 31.44,46.2 L30.84,46.2 L30.84,35 L28.84,35 L28.84,48.2002084 L31.44,48.2002084 C33.7586583,48.1970417 35.6370469,46.3186191 35.6399998,44.0002547 L35.64,36 L35.6298043,35.6435741 C35.5986019,35.050663 35.4964917,34.4642086 35.3255727,33.896152 L35.295,33.805 L35.3846218,33.8007524 L41.84,33.8 C42.9238976,33.7969875 43.9829848,34.124047 44.8761613,34.7373716 C46.3535259,35.7437903 47.2378908,37.4136373 47.2400001,39.2002361 L47.24,42.4 C47.2373286,43.8872023 46.3678766,45.2370047 45.0147662,45.8546193 L44.8170328,45.9408646 C44.7504331,45.9675118 44.6831637,45.9920538 44.6152818,46.0144779 L44.44,46.066 L44.44,37.4 L42.44,37.4 L42.44,46.2 L35.24,46.2 L35.24,48.2002084 L43.44,48.2002084 C44.273389,48.2051783 45.098397,48.0242728 45.853595,47.6704864 C47.9137027,46.7264668 49.2367634,44.6680695 49.24,42.4002854 L49.24,39.2 C49.2387152,36.7527957 48.0278419,34.4647158 46.0050761,33.0871924 C44.7797782,32.2450588 43.3265615,31.7958253 41.8394384,31.8000008 L35.44,31.8 L35.1394064,31.8087783 C34.939327,31.8187086 34.7399374,31.8367855 34.5415783,31.8629513 L34.374,31.888 L34.4475669,31.9975801 C33.9801239,31.2664513 33.3874686,30.6242207 32.6972798,30.0993851 L32.4339411,29.9081302 C32.3545057,29.8480471 32.2697501,29.7901059 32.1818591,29.7359441 L32.0479443,29.6577405 C30.9050092,28.9652816 29.5851003,28.5980731 28.2397203,28.5999331 L21.84,28.5999331 Z" id="Path" fill="#32AD71"></path>
                    <polygon id="Path" fill="#32AD71" points="28.44 46.2 21.64 46.2 21.64 48.2 28.44 48.2"></polygon>
                </g>
            </g>
        </g>
    </g>
</svg>